<svg width="14" height="14" viewBox="0 0 14 14" fill="none" xmlns="http://www.w3.org/2000/svg">
<path fill-rule="evenodd" clip-rule="evenodd" d="M7.37997 13.2587C7.49898 13.2098 7.61048 13.1371 7.70712 13.0405L13.0404 7.70715C13.431 7.31662 13.431 6.68346 13.0404 6.29293C12.6499 5.90241 12.0168 5.90241 11.6262 6.29293L8 9.91917L8 1.66671C8 1.11442 7.55228 0.666708 7 0.666708C6.44771 0.666708 6 1.11442 6 1.66671L6 9.91915L2.37378 6.29293C1.98326 5.90241 1.35009 5.90241 0.959569 6.29294C0.569044 6.68346 0.569045 7.31662 0.959569 7.70715L6.2902 13.0378C6.29911 13.0468 6.30818 13.0556 6.31742 13.0642C6.49613 13.2312 6.73613 13.3334 7 13.3334C7.001 13.3334 7.00201 13.3334 7.00301 13.3334C7.13643 13.333 7.2637 13.3065 7.37997 13.2587Z" fill="#011756"/>
</svg>
