<svg width="14" height="14" viewBox="0 0 14 14" fill="none" xmlns="http://www.w3.org/2000/svg">
<path fill-rule="evenodd" clip-rule="evenodd" d="M6.62003 0.741342C6.50102 0.790153 6.38952 0.862879 6.29288 0.959519L0.95955 6.29285C0.569025 6.68338 0.569025 7.31654 0.95955 7.70707C1.35007 8.09759 1.98324 8.09759 2.37376 7.70707L6 4.08083V12.3333C6 12.8856 6.44772 13.3333 7 13.3333C7.55228 13.3333 8 12.8856 8 12.3333V4.08085L11.6262 7.70707C12.0167 8.09759 12.6499 8.09759 13.0404 7.70707C13.431 7.31654 13.431 6.68338 13.0404 6.29285L7.7098 0.962221C7.70089 0.953246 7.69182 0.944439 7.68258 0.935805C7.50387 0.768827 7.26387 0.666626 7 0.666626C6.999 0.666626 6.99799 0.666627 6.99699 0.66663C6.86357 0.667023 6.7363 0.693542 6.62003 0.741342Z" fill="#011756"/>
</svg>
