<svg width="66" height="16" viewBox="0 0 66 16" fill="none" xmlns="http://www.w3.org/2000/svg">
<g clip-path="url(#clip0_534_212)">
<path d="M8.07454 0.586512C8.18521 0.372156 8.38085 0.22073 8.66344 0.134201C8.94405 0.0457059 9.31952 0.00244141 9.78589 0.00244141C10.2523 0.00244141 10.6258 0.0457059 10.9083 0.134201C11.189 0.222697 11.3866 0.378056 11.4972 0.598312C11.6079 0.818567 11.6751 1.01522 11.6968 1.18435C11.7186 1.35347 11.7304 1.60913 11.7304 1.94738V13.7684C11.7304 14.1067 11.7186 14.3623 11.6968 14.5314C11.6751 14.7006 11.6039 14.8894 11.4854 15.0959C11.264 15.4931 10.6376 15.6937 9.60804 15.6937C8.57846 15.6937 8.00538 15.3318 7.88681 14.6101C7.26432 15.3181 6.39877 15.6721 5.28817 15.6721C3.95427 15.6721 2.74092 15.0939 1.64416 13.9356C0.547393 12.7753 0 11.4282 0 9.88838C0 8.34856 0.551346 6.99556 1.65601 5.83135C2.7587 4.66714 3.97008 4.08504 5.28817 4.08504C6.38296 4.08504 7.23468 4.45279 7.84333 5.19025V1.92378C7.84333 1.58553 7.85519 1.32987 7.87693 1.16075C7.89867 0.991625 7.96586 0.798902 8.07652 0.586512H8.07454ZM4.4661 11.2256C4.85145 11.6229 5.31782 11.8235 5.86521 11.8235C6.4126 11.8235 6.86909 11.6249 7.23073 11.2256C7.59434 10.8284 7.77417 10.3899 7.77417 9.91001C7.77417 9.43017 7.60027 8.98573 7.25247 8.57275C6.90466 8.15977 6.43434 7.95328 5.8415 7.95328C5.24865 7.95328 4.77438 8.15583 4.42064 8.56095C4.06494 8.96606 3.88708 9.41247 3.88708 9.89821C3.88708 10.384 4.07877 10.8264 4.46412 11.2256H4.4661Z" fill="#011756"/>
<path d="M24.1012 8.49365C24.1012 9.40024 23.8759 10.0708 23.4233 10.5055C22.9708 10.9401 22.4708 11.1584 21.9234 11.1584H16.659C16.659 11.5713 16.904 11.9174 17.3921 12.1967C17.8802 12.476 18.3703 12.6175 18.8584 12.6175C19.7181 12.6175 20.3919 12.5291 20.88 12.3521L21.1251 12.2636C21.4808 12.1023 21.7772 12.0197 22.0143 12.0197C22.4886 12.0197 22.8957 12.3521 23.2356 13.0148C23.4273 13.412 23.5241 13.7523 23.5241 14.0315C23.5241 15.3432 21.9472 15.9981 18.7932 15.9981C17.6965 15.9981 16.7242 15.8093 15.8725 15.4337C15.0208 15.0581 14.3587 14.5605 13.8845 13.941C12.9517 12.7473 12.4854 11.414 12.4854 9.93908C12.4854 8.08264 13.0881 6.59788 14.2955 5.4848C15.5029 4.37172 17.0088 3.81519 18.8169 3.81519C20.8761 3.81519 22.3859 4.53692 23.3482 5.98234C23.8522 6.74931 24.1031 7.5851 24.1031 8.49168L24.1012 8.49365ZM19.4137 9.14655C19.9769 9.14655 20.2575 8.91056 20.2575 8.43859C20.2575 8.10034 20.1271 7.82698 19.8682 7.6205C19.6094 7.41401 19.2379 7.31174 18.7576 7.31174C18.2774 7.31174 17.7992 7.50643 17.3249 7.89778C16.8507 8.28913 16.6135 8.70407 16.6135 9.14655H19.4118H19.4137Z" fill="#011756"/>
<path d="M28.5692 9.88787C28.5692 10.5152 28.7767 11.001 29.1916 11.3471C29.6066 11.6932 30.0473 11.8662 30.5137 11.8662C30.9801 11.8662 31.4168 11.7305 31.8239 11.4572C32.231 11.1838 32.561 11.0481 32.812 11.0481C33.2566 11.0481 33.7961 11.4395 34.4344 12.2202C34.7743 12.647 34.9442 13.0304 34.9442 13.3707C34.9442 13.9311 34.5371 14.4542 33.723 14.94C32.8791 15.53 31.8417 15.8249 30.6125 15.8249C29.2351 15.8249 27.9091 15.3313 26.6365 14.3441C26.0298 13.8721 25.5338 13.2428 25.1484 12.4542C24.7631 11.6657 24.5714 10.7964 24.5714 9.84658C24.5714 8.89672 24.7631 8.0334 25.1484 7.26054C25.5338 6.48768 26.0298 5.86428 26.6365 5.3923C27.8657 4.41885 29.1758 3.93311 30.569 3.93311C31.1322 3.93311 31.6796 4.0098 32.2132 4.16516C32.7467 4.32052 33.138 4.47195 33.391 4.61747L33.7467 4.83773C34.0135 5.01472 34.2209 5.15434 34.3692 5.25857C34.7545 5.55356 34.9462 5.88787 34.9462 6.26546C34.9462 6.64304 34.7901 7.06585 34.4798 7.53586C33.9463 8.34608 33.4364 8.7512 32.9463 8.7512C32.6657 8.7512 32.2646 8.58994 31.7468 8.26546C31.48 8.0157 31.0986 7.88984 30.6026 7.88984C30.1066 7.88984 29.6442 8.06683 29.2134 8.42081C28.7846 8.7748 28.5692 9.26447 28.5692 9.89181V9.88787Z" fill="#011756"/>
<path d="M37.031 5.52021C38.276 4.36977 39.6969 3.79553 41.2956 3.79553C42.8943 3.79553 44.3092 4.3678 45.5384 5.50841C46.7675 6.65099 47.3821 8.10625 47.3821 9.8742C47.3821 11.0974 47.0639 12.1849 46.4276 13.1348C45.7913 14.0846 45.0167 14.7847 44.1056 15.2351C43.1946 15.6854 42.25 15.9096 41.2738 15.9096C40.2976 15.9096 39.3491 15.6697 38.4301 15.1918C37.5112 14.7139 36.7386 14.006 36.1082 13.0699C35.4778 12.1338 35.1636 11.0777 35.1636 9.89779C35.1636 8.12985 35.7861 6.67066 37.0291 5.52021H37.031ZM39.8075 11.4789C40.2818 11.8408 40.762 12.0197 41.2521 12.0197C41.7422 12.0197 42.2303 11.8349 42.7184 11.4671C43.2065 11.0994 43.4515 10.5527 43.4515 9.83093C43.4515 9.1092 43.2223 8.57036 42.7619 8.21638C42.3034 7.8624 41.8074 7.68541 41.2738 7.68541C40.7403 7.68541 40.2443 7.87026 39.7858 8.23801C39.3273 8.60576 39.0981 9.14853 39.0981 9.8624C39.0981 10.5763 39.3352 11.1151 39.8095 11.4769L39.8075 11.4789Z" fill="#011756"/>
<path d="M51.7612 5.60863C52.4568 4.56241 53.2947 4.03931 54.2709 4.03931C55.7807 4.03931 56.9071 4.68041 57.6482 5.96261C57.8102 5.74235 58.0078 5.5103 58.2371 5.26645C58.4663 5.02259 58.8339 4.75907 59.3358 4.46998C59.8397 4.18287 60.3575 4.03931 60.891 4.03931C62.0767 4.03931 63.0687 4.49162 63.8671 5.39821C64.6674 6.30479 65.0666 7.80529 65.0666 9.89771V13.766C65.0666 14.1042 65.0548 14.3599 65.033 14.529C65.0113 14.6981 64.9402 14.8948 64.8216 15.115C64.6299 15.5123 64.0588 15.7129 63.1102 15.7129C62.1617 15.7129 61.6064 15.5064 61.3989 15.0934C61.2942 14.8731 61.2329 14.6765 61.2092 14.5073C61.1874 14.3382 61.1756 14.0845 61.1756 13.7443V9.87608C61.1756 8.59388 60.7171 7.95278 59.7982 7.95278C59.2805 7.95278 58.9287 8.1219 58.743 8.46015C58.5572 8.7984 58.4643 9.27824 58.4643 9.89771V13.766C58.4643 14.1199 58.4525 14.3776 58.4307 14.5388C58.409 14.702 58.3378 14.8928 58.2193 15.1131C58.0118 15.5103 57.4347 15.7109 56.4862 15.7109C55.5376 15.7109 54.9823 15.5044 54.7748 15.0914C54.6701 14.8712 54.6089 14.6745 54.5851 14.5054C54.5634 14.3363 54.5515 14.0826 54.5515 13.7424V9.87411C54.5515 8.59191 54.0931 7.95081 53.1742 7.95081C52.2553 7.95081 51.8403 8.59191 51.8403 9.87411V13.7876C51.8403 14.1258 51.8284 14.3815 51.8067 14.5506C51.7849 14.7197 51.7138 14.9144 51.5952 15.1367C51.3739 15.5201 50.7949 15.7109 49.8621 15.7109C48.9294 15.7109 48.3583 15.5123 48.1508 15.1131C48.0461 14.8928 47.9848 14.7001 47.9611 14.5388C47.9393 14.3776 47.9275 14.118 47.9275 13.766V5.98424C47.9275 5.64599 47.9393 5.39034 47.9611 5.22121C47.9828 5.05209 48.054 4.8633 48.1725 4.65681C48.3939 4.25956 48.9195 4.05897 49.7495 4.05897C50.5795 4.05897 51.119 4.19073 51.3719 4.45622C51.6229 4.72171 51.7494 5.10519 51.7494 5.60666L51.7612 5.60863Z" fill="#011756"/>
</g>
<defs>
<clipPath id="clip0_534_212">
<rect width="65.0667" height="16" fill="white"/>
</clipPath>
</defs>
</svg>
