<svg width="66" height="16" viewBox="0 0 66 16" fill="none" xmlns="http://www.w3.org/2000/svg">
<g clip-path="url(#clip0_291_1443)">
<path d="M8.07454 0.586512C8.18521 0.372156 8.38085 0.22073 8.66344 0.134201C8.94405 0.0457059 9.31952 0.00244141 9.78589 0.00244141C10.2523 0.00244141 10.6258 0.0457059 10.9083 0.134201C11.189 0.222697 11.3866 0.378056 11.4972 0.598312C11.6079 0.818567 11.6751 1.01522 11.6968 1.18435C11.7186 1.35347 11.7304 1.60913 11.7304 1.94738V13.7684C11.7304 14.1067 11.7186 14.3623 11.6968 14.5314C11.6751 14.7006 11.6039 14.8894 11.4854 15.0959C11.264 15.4931 10.6376 15.6937 9.60804 15.6937C8.57846 15.6937 8.00538 15.3318 7.88681 14.6101C7.26432 15.3181 6.39877 15.6721 5.28817 15.6721C3.95427 15.6721 2.74092 15.0939 1.64416 13.9356C0.547393 12.7753 0 11.4282 0 9.88838C0 8.34856 0.551346 6.99556 1.65601 5.83135C2.7587 4.66714 3.97008 4.08504 5.28817 4.08504C6.38296 4.08504 7.23468 4.45279 7.84333 5.19025V1.92378C7.84333 1.58553 7.85519 1.32987 7.87693 1.16075C7.89867 0.991625 7.96586 0.798902 8.07652 0.586512H8.07454ZM4.4661 11.2256C4.85145 11.6229 5.31782 11.8235 5.86521 11.8235C6.4126 11.8235 6.86909 11.6249 7.23073 11.2256C7.59434 10.8284 7.77417 10.3899 7.77417 9.91001C7.77417 9.43017 7.60027 8.98573 7.25247 8.57275C6.90466 8.15977 6.43434 7.95328 5.8415 7.95328C5.24865 7.95328 4.77438 8.15583 4.42064 8.56095C4.06494 8.96606 3.88708 9.41247 3.88708 9.89821C3.88708 10.384 4.07877 10.8264 4.46412 11.2256H4.4661Z" fill="white"/>
<path d="M24.1011 8.49359C24.1011 9.40018 23.8758 10.0708 23.4233 10.5054C22.9708 10.94 22.4708 11.1583 21.9234 11.1583H16.6589C16.6589 11.5713 16.904 11.9174 17.3921 12.1966C17.8802 12.4759 18.3703 12.6175 18.8584 12.6175C19.718 12.6175 20.3919 12.529 20.88 12.352L21.125 12.2635C21.4808 12.1022 21.7772 12.0196 22.0143 12.0196C22.4886 12.0196 22.8957 12.352 23.2356 13.0147C23.4273 13.412 23.5241 13.7522 23.5241 14.0314C23.5241 15.3431 21.9471 15.998 18.7932 15.998C17.6964 15.998 16.7242 15.8092 15.8724 15.4336C15.0207 15.058 14.3587 14.5605 13.8844 13.941C12.9517 12.7473 12.4853 11.4139 12.4853 9.93902C12.4853 8.08258 13.088 6.59782 14.2955 5.48474C15.5029 4.37166 17.0087 3.81512 18.8169 3.81512C20.876 3.81512 22.3858 4.53686 23.3482 5.98228C23.8521 6.74924 24.1031 7.58504 24.1031 8.49162L24.1011 8.49359ZM19.4137 9.14649C19.9769 9.14649 20.2575 8.9105 20.2575 8.43853C20.2575 8.10028 20.1271 7.82692 19.8682 7.62043C19.6093 7.41394 19.2378 7.31168 18.7576 7.31168C18.2774 7.31168 17.7992 7.50637 17.3249 7.89772C16.8506 8.28907 16.6135 8.70401 16.6135 9.14649H19.4117H19.4137Z" fill="white"/>
<path d="M28.5692 9.88793C28.5692 10.5153 28.7767 11.001 29.1917 11.3471C29.6067 11.6932 30.0474 11.8663 30.5137 11.8663C30.9801 11.8663 31.4168 11.7306 31.8239 11.4573C32.231 11.1839 32.561 11.0482 32.812 11.0482C33.2566 11.0482 33.7961 11.4396 34.4344 12.2203C34.7743 12.647 34.9442 13.0305 34.9442 13.3707C34.9442 13.9312 34.5372 14.4543 33.723 14.94C32.8792 15.53 31.8417 15.825 30.6125 15.825C29.2352 15.825 27.9092 15.3314 26.6365 14.3442C26.0298 13.8722 25.5338 13.2429 25.1485 12.4543C24.7631 11.6657 24.5714 10.7965 24.5714 9.84664C24.5714 8.89678 24.7631 8.03346 25.1485 7.2606C25.5338 6.48774 26.0298 5.86434 26.6365 5.39236C27.8657 4.41891 29.1759 3.93317 30.5691 3.93317C31.1323 3.93317 31.6796 4.00986 32.2132 4.16522C32.7468 4.32058 33.138 4.47201 33.391 4.61753L33.7467 4.83779C34.0135 5.01478 34.221 5.15441 34.3692 5.25863C34.7545 5.55362 34.9462 5.88794 34.9462 6.26552C34.9462 6.6431 34.7901 7.06591 34.4799 7.53592C33.9463 8.34615 33.4364 8.75126 32.9464 8.75126C32.6657 8.75126 32.2646 8.59 31.7468 8.26552C31.4801 8.01576 31.0987 7.8899 30.6026 7.8899C30.1066 7.8899 29.6442 8.06689 29.2134 8.42088C28.7846 8.77486 28.5692 9.26453 28.5692 9.89187V9.88793Z" fill="white"/>
<path d="M37.031 5.52015C38.276 4.36971 39.6969 3.79547 41.2956 3.79547C42.8943 3.79547 44.3092 4.36774 45.5384 5.50835C46.7675 6.65093 47.3821 8.10619 47.3821 9.87413C47.3821 11.0973 47.0639 12.1849 46.4276 13.1347C45.7913 14.0846 45.0167 14.7847 44.1056 15.235C43.1946 15.6853 42.25 15.9095 41.2738 15.9095C40.2976 15.9095 39.3491 15.6696 38.4301 15.1917C37.5112 14.7139 36.7386 14.0059 36.1082 13.0698C35.4778 12.1337 35.1636 11.0777 35.1636 9.89773C35.1636 8.12979 35.7861 6.67059 37.0291 5.52015H37.031ZM39.8075 11.4789C40.2818 11.8407 40.762 12.0197 41.2521 12.0197C41.7422 12.0197 42.2303 11.8348 42.7184 11.4671C43.2065 11.0993 43.4515 10.5526 43.4515 9.83087C43.4515 9.10914 43.2223 8.5703 42.7619 8.21632C42.3034 7.86233 41.8074 7.68534 41.2738 7.68534C40.7403 7.68534 40.2443 7.8702 39.7858 8.23795C39.3273 8.6057 39.0981 9.14847 39.0981 9.86234C39.0981 10.5762 39.3352 11.115 39.8095 11.4769L39.8075 11.4789Z" fill="white"/>
<path d="M51.7613 5.60863C52.4569 4.56241 53.2948 4.03931 54.271 4.03931C55.7808 4.03931 56.9072 4.68041 57.6482 5.96261C57.8103 5.74235 58.0079 5.5103 58.2371 5.26645C58.4664 5.02259 58.8339 4.75907 59.3359 4.46998C59.8398 4.18287 60.3575 4.03931 60.8911 4.03931C62.0768 4.03931 63.0688 4.49162 63.8672 5.39821C64.6675 6.30479 65.0667 7.80529 65.0667 9.89771V13.766C65.0667 14.1042 65.0548 14.3599 65.0331 14.529C65.0114 14.6981 64.9402 14.8948 64.8216 15.115C64.63 15.5123 64.0589 15.7129 63.1103 15.7129C62.1618 15.7129 61.6065 15.5064 61.399 15.0934C61.2942 14.8731 61.233 14.6765 61.2092 14.5073C61.1875 14.3382 61.1757 14.0845 61.1757 13.7443V9.87608C61.1757 8.59388 60.7172 7.95278 59.7983 7.95278C59.2805 7.95278 58.9288 8.1219 58.743 8.46015C58.5573 8.7984 58.4644 9.27824 58.4644 9.89771V13.766C58.4644 14.1199 58.4525 14.3776 58.4308 14.5388C58.409 14.702 58.3379 14.8928 58.2193 15.1131C58.0118 15.5103 57.4348 15.7109 56.4863 15.7109C55.5377 15.7109 54.9824 15.5044 54.7749 15.0914C54.6702 14.8712 54.6089 14.6745 54.5852 14.5054C54.5635 14.3363 54.5516 14.0826 54.5516 13.7424V9.87411C54.5516 8.59191 54.0931 7.95081 53.1742 7.95081C52.2553 7.95081 51.8403 8.59191 51.8403 9.87411V13.7876C51.8403 14.1258 51.8285 14.3815 51.8067 14.5506C51.785 14.7197 51.7139 14.9144 51.5953 15.1367C51.374 15.5201 50.7949 15.7109 49.8622 15.7109C48.9295 15.7109 48.3584 15.5123 48.1509 15.1131C48.0461 14.8928 47.9849 14.7001 47.9611 14.5388C47.9394 14.3776 47.9276 14.118 47.9276 13.766V5.98424C47.9276 5.64599 47.9394 5.39034 47.9611 5.22121C47.9829 5.05209 48.054 4.8633 48.1726 4.65681C48.3939 4.25956 48.9196 4.05897 49.7496 4.05897C50.5795 4.05897 51.119 4.19073 51.372 4.45622C51.6229 4.72171 51.7494 5.10519 51.7494 5.60666L51.7613 5.60863Z" fill="white"/>
</g>
<defs>
<clipPath id="clip0_291_1443">
<rect width="65.0667" height="16" fill="white"/>
</clipPath>
</defs>
</svg>
