<svg width="380" height="160" viewBox="0 0 380 160" fill="none" xmlns="http://www.w3.org/2000/svg">
<rect width="380" height="160" fill="#011756"/>
<g opacity="0.41" clip-path="url(#clip0_319_1274)">
<path d="M179.097 122.323C174.224 122.323 169.45 121.785 165.826 118.252C161.854 114.371 160 107.561 160 96.8174C160 86.0736 161.786 79.022 165.78 75.065C170.638 70.2605 177.788 70.3362 186.844 70.4345C188.184 70.4497 189.583 70.4648 191.028 70.4648C191.55 70.4648 192.231 70.3967 192.496 70.0789C193.502 68.8835 192.723 64.2228 192.148 60.8105C191.202 55.1814 190.128 48.8107 192.799 44.2257C195.477 39.6028 201 35.5399 206.788 37.5071C210.307 38.7101 212.35 41.9559 211.873 45.5952C210.443 56.4903 211.941 60.7727 215.951 72.2352C216.897 74.9363 218.856 82.2073 219.522 90.4316C220.362 100.79 218.879 108.734 215.111 114.045C211.653 118.918 206.448 121.384 199.639 121.384C198.178 121.384 196.99 120.196 196.99 118.736C196.99 117.276 198.178 116.088 199.639 116.088C204.7 116.088 208.347 114.416 210.791 110.981C218.009 100.805 212.66 78.8707 210.95 73.983C206.879 62.354 205.018 57.0502 206.622 44.9067C206.811 43.4388 205.888 42.8033 205.079 42.5233C203.005 41.8197 199.707 42.879 197.376 46.8814C195.674 49.817 196.574 55.1889 197.376 59.9328C198.322 65.562 199.139 70.427 196.544 73.4988C195.273 74.9969 193.419 75.761 191.028 75.761C189.561 75.761 188.153 75.7459 186.791 75.7308C178.665 75.64 172.794 75.5794 169.511 78.8329C166.635 81.6777 165.296 87.3901 165.296 96.8174C165.296 106.245 166.681 111.677 169.526 114.461C172.34 117.215 176.887 117.102 182.153 116.981L183.447 116.951C185.74 116.905 187.329 116.398 187.934 115.536C188.645 114.514 188.093 112.857 188.093 112.842C187.805 112.01 187.934 111.064 188.464 110.353C188.751 109.96 191.271 106.275 188.562 103.052C187.661 101.985 187.745 100.404 188.751 99.4352C189.273 98.9207 190.635 97.1805 190.567 95.4782C190.521 94.4114 189.916 93.4126 188.713 92.4064C187.934 91.7557 187.593 90.7267 187.836 89.7355C187.987 89.1076 188.199 88.472 188.418 87.7986C188.834 86.5275 189.538 84.409 189.031 83.7886C188.804 83.5087 187.306 82.177 179.672 83.0244C178.211 83.1909 176.91 82.1392 176.751 80.6865C176.592 79.2339 177.636 77.9249 179.089 77.766C186.625 76.9338 190.96 77.766 193.147 80.4596C195.47 83.3271 194.252 87.0193 193.45 89.4632L193.404 89.5918C195.303 91.6951 195.803 93.8061 195.863 95.3117C195.954 97.8917 194.864 100.071 193.888 101.493C196.083 105.549 194.88 109.846 193.442 112.396C193.722 113.886 193.82 116.308 192.345 118.487C190.711 120.893 187.76 122.156 183.568 122.239L182.29 122.27C181.23 122.292 180.164 122.323 179.104 122.323H179.097Z" fill="#3350A3"/>
</g>
<defs>
<clipPath id="clip0_319_1274">
<rect width="59.7567" height="85.3224" fill="white" transform="translate(160 37)"/>
</clipPath>
</defs>
</svg>
