<svg width="150" height="37" viewBox="0 0 150 37" fill="none" xmlns="http://www.w3.org/2000/svg">
<g clip-path="url(#clip0_282_865)">
<path d="M19.0505 1.34055C19.3037 0.850209 19.7512 0.503822 20.3976 0.305887C21.0395 0.103454 21.8984 0.00448608 22.9652 0.00448608C24.0321 0.00448608 24.8864 0.103454 25.5328 0.305887C26.1747 0.508321 26.6268 0.863704 26.8799 1.36754C27.1331 1.87137 27.2868 2.32123 27.3365 2.7081C27.3862 3.09497 27.4133 3.67978 27.4133 4.45353V31.4942C27.4133 32.2679 27.3862 32.8527 27.3365 33.2396C27.2868 33.6265 27.124 34.0583 26.8528 34.5307C26.3465 35.4394 24.9135 35.8982 22.5584 35.8982C20.2032 35.8982 18.8923 35.0705 18.6211 33.4195C17.1972 35.039 15.2172 35.8487 12.6767 35.8487C9.62542 35.8487 6.84987 34.5262 4.34102 31.8765C1.83218 29.2224 0.580017 26.1409 0.580017 22.6186C0.580017 19.0962 1.84122 16.0012 4.36815 13.3381C6.89055 10.675 9.66158 9.34342 12.6767 9.34342C15.181 9.34342 17.1293 10.1846 18.5216 11.8716V4.39954C18.5216 3.6258 18.5488 3.04099 18.5985 2.65412C18.6482 2.26724 18.8019 1.82639 19.0551 1.34055H19.0505ZM10.7962 25.6776C11.6777 26.5863 12.7445 27.0451 13.9967 27.0451C15.2488 27.0451 16.2931 26.5908 17.1203 25.6776C17.9521 24.7689 18.3634 23.7657 18.3634 22.6681C18.3634 21.5704 17.9656 20.5537 17.17 19.6091C16.3744 18.6644 15.2986 18.192 13.9424 18.192C12.5863 18.192 11.5014 18.6554 10.6922 19.5821C9.87856 20.5088 9.47172 21.5299 9.47172 22.6411C9.47172 23.7522 9.9102 24.7644 10.7917 25.6776H10.7962Z" fill="#8BD4DD"/>
<path d="M55.7113 19.4291C55.7113 21.503 55.196 23.0369 54.1608 24.0311C53.1256 25.0253 51.982 25.5246 50.7298 25.5246H38.6873C38.6873 26.4693 39.2479 27.2611 40.3644 27.8999C41.481 28.5386 42.602 28.8625 43.7186 28.8625C45.685 28.8625 47.2264 28.6601 48.343 28.2552L48.9035 28.0528C49.7172 27.6839 50.3953 27.495 50.9377 27.495C52.0226 27.495 52.9538 28.2552 53.7314 29.7712C54.1698 30.6799 54.3913 31.4582 54.3913 32.097C54.3913 35.0975 50.784 36.5955 43.5694 36.5955C41.0606 36.5955 38.8365 36.1636 36.8882 35.3044C34.9399 34.4452 33.4255 33.3071 32.3406 31.89C30.207 29.1594 29.1402 26.1094 29.1402 22.7355C29.1402 18.4889 30.5189 15.0926 33.2809 12.5464C36.0429 10.0002 39.4875 8.72714 43.6237 8.72714C48.334 8.72714 51.7876 10.3781 53.989 13.6845C55.1417 15.4389 55.7158 17.3508 55.7158 19.4246L55.7113 19.4291ZM44.9888 20.9226C46.2772 20.9226 46.9191 20.3828 46.9191 19.3032C46.9191 18.5294 46.6207 17.9041 46.0285 17.4318C45.4364 16.9594 44.5865 16.7255 43.488 16.7255C42.3896 16.7255 41.2956 17.1709 40.2107 18.0661C39.1258 18.9613 38.5834 19.9105 38.5834 20.9226H44.9843H44.9888Z" fill="#8BD4DD"/>
<path d="M65.932 22.6186C65.932 24.0536 66.4067 25.1647 67.356 25.9565C68.3053 26.7482 69.3133 27.1441 70.3801 27.1441C71.447 27.1441 72.446 26.8337 73.3772 26.2084C74.3084 25.5831 75.0633 25.2727 75.6374 25.2727C76.6545 25.2727 77.8886 26.1679 79.3487 27.9538C80.1262 28.93 80.515 29.8072 80.515 30.5855C80.515 31.8675 79.5837 33.0641 77.7213 34.1753C75.7911 35.5248 73.4179 36.1996 70.6062 36.1996C67.4554 36.1996 64.4222 35.0705 61.511 32.8122C60.1233 31.7326 58.9886 30.2931 58.1071 28.4891C57.2257 26.6852 56.7872 24.6969 56.7872 22.5241C56.7872 20.3513 57.2257 18.3765 58.1071 16.6085C58.9886 14.8406 60.1233 13.4146 61.511 12.3349C64.3227 10.1082 67.3198 8.99704 70.5067 8.99704C71.795 8.99704 73.0472 9.17248 74.2677 9.52787C75.4882 9.88325 76.3833 10.2296 76.9619 10.5625L77.7756 11.0664C78.3858 11.4712 78.8605 11.7906 79.1995 12.029C80.081 12.7038 80.5195 13.4686 80.5195 14.3323C80.5195 15.196 80.1624 16.1632 79.4527 17.2383C78.2321 19.0917 77.0659 20.0184 75.9448 20.0184C75.3029 20.0184 74.3852 19.6495 73.2009 18.9073C72.5906 18.336 71.7182 18.0481 70.5836 18.0481C69.4489 18.0481 68.3911 18.4529 67.4057 19.2627C66.4248 20.0724 65.932 21.1925 65.932 22.6276V22.6186Z" fill="#8BD4DD"/>
<path d="M85.2885 12.6274C88.1364 9.99573 91.3866 8.68216 95.0436 8.68216C98.7007 8.68216 101.937 9.99123 104.749 12.6004C107.561 15.214 108.967 18.5429 108.967 22.5871C108.967 25.3852 108.239 27.8729 106.783 30.0457C105.328 32.2184 103.556 33.8199 101.472 34.8501C99.3878 35.8802 97.227 36.3931 94.9939 36.3931C92.7608 36.3931 90.591 35.8443 88.489 34.7511C86.387 33.658 84.6195 32.0385 83.1775 29.8972C81.7355 27.7559 81.0167 25.3402 81.0167 22.6411C81.0167 18.5969 82.4407 15.259 85.284 12.6274H85.2885ZM91.6398 26.2579C92.7247 27.0856 93.8231 27.495 94.9442 27.495C96.0653 27.495 97.1818 27.0721 98.2984 26.2309C99.4149 25.3897 99.9754 24.1391 99.9754 22.4881C99.9754 20.8372 99.4511 19.6046 98.3978 18.7948C97.3491 17.9851 96.2144 17.5802 94.9939 17.5802C93.7734 17.5802 92.6388 18.0031 91.59 18.8443C90.5413 19.6856 90.0169 20.9271 90.0169 22.5601C90.0169 24.1931 90.5594 25.4257 91.6443 26.2534L91.6398 26.2579Z" fill="#8BD4DD"/>
<path d="M118.984 12.8298C120.575 10.4366 122.492 9.23999 124.725 9.23999C128.178 9.23999 130.755 10.7065 132.45 13.6395C132.821 13.1357 133.273 12.6049 133.797 12.0471C134.322 11.4893 135.163 10.8864 136.311 10.2252C137.463 9.56838 138.648 9.23999 139.868 9.23999C142.581 9.23999 144.85 10.2747 146.676 12.3485C148.507 14.4223 149.42 17.8547 149.42 22.6411V31.4897C149.42 32.2634 149.393 32.8482 149.343 33.2351C149.293 33.622 149.131 34.0718 148.859 34.5757C148.421 35.4844 147.115 35.9432 144.945 35.9432C142.775 35.9432 141.505 35.4709 141.03 34.5262C140.79 34.0224 140.65 33.5725 140.596 33.1856C140.546 32.7988 140.519 32.2185 140.519 31.4402V22.5916C140.519 19.6586 139.471 18.1921 137.369 18.1921C136.184 18.1921 135.38 18.5789 134.955 19.3527C134.53 20.1264 134.317 21.2241 134.317 22.6411V31.4897C134.317 32.2994 134.29 32.8887 134.24 33.2576C134.191 33.631 134.028 34.0673 133.757 34.5712C133.282 35.4799 131.962 35.9387 129.792 35.9387C127.622 35.9387 126.352 35.4664 125.878 34.5217C125.638 34.0179 125.498 33.568 125.444 33.1811C125.394 32.7943 125.367 32.214 125.367 31.4357V22.5871C125.367 19.6541 124.318 18.1876 122.216 18.1876C120.114 18.1876 119.165 19.6541 119.165 22.5871V31.5392C119.165 32.3129 119.138 32.8977 119.088 33.2846C119.038 33.6715 118.875 34.1168 118.604 34.6252C118.098 35.5024 116.773 35.9387 114.64 35.9387C112.506 35.9387 111.2 35.4844 110.725 34.5712C110.485 34.0673 110.345 33.6265 110.291 33.2576C110.241 32.8887 110.214 32.2949 110.214 31.4897V13.689C110.214 12.9153 110.241 12.3305 110.291 11.9436C110.341 11.5567 110.504 11.1249 110.775 10.6525C111.281 9.74382 112.483 9.28497 114.382 9.28497C116.281 9.28497 117.515 9.58638 118.093 10.1937C118.667 10.801 118.957 11.6782 118.957 12.8253L118.984 12.8298Z" fill="#8BD4DD"/>
</g>
<defs>
<clipPath id="clip0_282_865">
<rect width="148.84" height="36.6" fill="white" transform="translate(0.580017)"/>
</clipPath>
</defs>
</svg>
