<svg width="24" height="24" viewBox="0 0 24 24" fill="none" xmlns="http://www.w3.org/2000/svg">
<mask id="mask0_284_895" style="mask-type:alpha" maskUnits="userSpaceOnUse" x="0" y="0" width="24" height="24">
<rect width="24" height="24" fill="#D9D9D9"/>
</mask>
<g mask="url(#mask0_284_895)">
<path d="M11.75 21C11.255 21 10.8314 20.8239 10.4792 20.4717C10.1264 20.1189 9.95 19.695 9.95 19.2H13.55C13.55 19.695 13.3739 20.1189 13.0217 20.4717C12.6689 20.8239 12.245 21 11.75 21ZM8.15 18.3V16.5H15.35V18.3H8.15ZM8.375 15.6C7.34 14.985 6.5189 14.16 5.9117 13.125C5.3039 12.09 5 10.965 5 9.75C5 7.875 5.6564 6.2814 6.9692 4.9692C8.2814 3.6564 9.875 3 11.75 3C13.625 3 15.2186 3.6564 16.5308 4.9692C17.8436 6.2814 18.5 7.875 18.5 9.75C18.5 10.965 18.1964 12.09 17.5892 13.125C16.9814 14.16 16.16 14.985 15.125 15.6H8.375ZM8.915 13.8H14.585C15.26 13.32 15.7814 12.7275 16.1492 12.0225C16.5164 11.3175 16.7 10.56 16.7 9.75C16.7 8.37 16.22 7.2 15.26 6.24C14.3 5.28 13.13 4.8 11.75 4.8C10.37 4.8 9.2 5.28 8.24 6.24C7.28 7.2 6.8 8.37 6.8 9.75C6.8 10.56 6.9839 11.3175 7.3517 12.0225C7.7189 12.7275 8.24 13.32 8.915 13.8Z" fill="#247079"/>
</g>
</svg>
