<svg width="24" height="24" viewBox="0 0 24 24" fill="none" xmlns="http://www.w3.org/2000/svg">
<rect width="24" height="24" rx="12" fill="white"/>
<path d="M16.2 11.4H7.80004C7.13729 11.4 6.60004 11.9373 6.60004 12.6V16.8C6.60004 17.4627 7.13729 18 7.80004 18H16.2C16.8628 18 17.4 17.4627 17.4 16.8V12.6C17.4 11.9373 16.8628 11.4 16.2 11.4Z" stroke="#F582AE" stroke-width="1.5" stroke-linecap="round" stroke-linejoin="round"/>
<path d="M9.00012 11.4V9C9.00012 8.20435 9.31619 7.44129 9.8788 6.87868C10.4414 6.31607 11.2045 6 12.0001 6C12.7958 6 13.5588 6.31607 14.1214 6.87868C14.6841 7.44129 15.0001 8.20435 15.0001 9V11.4" stroke="#F582AE" stroke-width="1.5" stroke-linecap="round" stroke-linejoin="round"/>
</svg>
