<svg width="56" height="56" viewBox="0 0 56 56" fill="none" xmlns="http://www.w3.org/2000/svg">
<rect width="56" height="56" rx="28" fill="#F582AE" fill-opacity="0.12"/>
<path d="M37.8001 26.6H18.2001C16.6537 26.6 15.4001 27.8536 15.4001 29.4V39.2C15.4001 40.7464 16.6537 42 18.2001 42H37.8001C39.3465 42 40.6001 40.7464 40.6001 39.2V29.4C40.6001 27.8536 39.3465 26.6 37.8001 26.6Z" stroke="#F582AE" stroke-width="4" stroke-linecap="round" stroke-linejoin="round"/>
<path d="M21.0004 26.6V21C21.0004 19.1435 21.7379 17.363 23.0506 16.0503C24.3634 14.7375 26.1439 14 28.0004 14C29.8569 14 31.6374 14.7375 32.9501 16.0503C34.2629 17.363 35.0004 19.1435 35.0004 21V26.6" stroke="#F582AE" stroke-width="4" stroke-linecap="round" stroke-linejoin="round"/>
</svg>
