<svg width="60" height="60" viewBox="0 0 60 60" fill="none" xmlns="http://www.w3.org/2000/svg">
<path d="M37.8434 20.9949L27.085 33.9025L21.9259 28.7411L21.9197 28.7348L21.9133 28.7287C21.2218 28.0608 20.2956 27.6912 19.3342 27.6996C18.3728 27.7079 17.4532 28.0936 16.7733 28.7734C16.0935 29.4532 15.7079 30.3729 15.6995 31.3343C15.6912 32.2957 16.0608 33.2219 16.7287 33.9134L16.7347 33.9196L16.7409 33.9258L24.7409 41.9258L24.7411 41.926C25.1013 42.2861 25.5327 42.5671 26.0076 42.7512C26.4825 42.9353 26.9906 43.0185 27.4994 42.9954C28.0082 42.9723 28.5066 42.8434 28.9629 42.617C29.4192 42.3906 29.8233 42.0716 30.1494 41.6803L30.1495 41.6802L43.4758 25.6886C43.7935 25.3228 44.0356 24.8977 44.1881 24.4377C44.3419 23.9736 44.4013 23.4835 44.3629 22.9961L43.366 23.0746L44.3629 22.9961C44.3245 22.5087 44.189 22.0339 43.9644 21.5996C43.7397 21.1653 43.4305 20.7804 43.0549 20.4674C42.6793 20.1544 42.2449 19.9197 41.7773 19.777C41.3096 19.6344 40.8182 19.5867 40.3318 19.6368C39.8455 19.6869 39.3741 19.8338 38.9453 20.0688C38.5204 20.3017 38.1459 20.6165 37.8434 20.9949ZM1.66663 30C1.66663 14.3523 14.3522 1.66669 30 1.66669C45.6477 1.66669 58.3333 14.3523 58.3333 30C58.3333 45.6477 45.6477 58.3334 30 58.3334C14.3522 58.3334 1.66663 45.6477 1.66663 30Z" fill="#8BD4DD" stroke="#011756" stroke-width="2"/>
</svg>
