<svg width="18" height="18" viewBox="0 0 18 18" fill="none" xmlns="http://www.w3.org/2000/svg">
<path fill-rule="evenodd" clip-rule="evenodd" d="M7.64092 3.45911C7.76026 3.33977 7.92213 3.27273 8.0909 3.27273H10.6364C10.8051 3.27273 10.967 3.33977 11.0863 3.45911C11.2057 3.57846 11.2727 3.74032 11.2727 3.90909V4.54544H7.45454V3.90909C7.45454 3.74032 7.52158 3.57846 7.64092 3.45911ZM6.18181 4.54544V3.90909C6.18181 3.40277 6.38295 2.91718 6.74097 2.55916C7.09899 2.20114 7.58458 2 8.0909 2H10.6364C11.1427 2 11.6283 2.20114 11.9863 2.55916C12.3443 2.91718 12.5454 3.40277 12.5454 3.90909V4.54544H15.0909C15.4424 4.54544 15.7273 4.83035 15.7273 5.1818C15.7273 5.53325 15.4424 5.81816 15.0909 5.81816H14.4545V14.0909C14.4545 14.5972 14.2534 15.0828 13.8954 15.4408C13.5374 15.7989 13.0518 16 12.5454 16H6.18181C5.67549 16 5.1899 15.7989 4.83188 15.4408C4.47385 15.0828 4.27272 14.5972 4.27272 14.0909V5.81816H3.63636C3.28491 5.81816 3 5.53325 3 5.1818C3 4.83035 3.28491 4.54544 3.63636 4.54544H6.18181ZM5.54545 14.0909V5.81818H13.1818V14.0909C13.1818 14.2597 13.1148 14.4215 12.9954 14.5409C12.8761 14.6602 12.7142 14.7273 12.5454 14.7273H6.18181C6.01304 14.7273 5.85117 14.6602 5.73183 14.5409C5.61249 14.4215 5.54545 14.2597 5.54545 14.0909ZM8.09093 7.72728C8.44238 7.72728 8.72729 8.01219 8.72729 8.36365V12.1818C8.72729 12.5333 8.44238 12.8182 8.09093 12.8182C7.73947 12.8182 7.45456 12.5333 7.45456 12.1818V8.36365C7.45456 8.01219 7.73947 7.72728 8.09093 7.72728ZM11.2727 8.36365C11.2727 8.01219 10.9878 7.72728 10.6364 7.72728C10.2849 7.72728 10 8.01219 10 8.36365V12.1818C10 12.5333 10.2849 12.8182 10.6364 12.8182C10.9878 12.8182 11.2727 12.5333 11.2727 12.1818V8.36365Z" fill="white"/>
</svg>
